<svg xmlns="http://www.w3.org/2000/svg" fill="none" viewBox="0 0 400 400" id="Filter-Setting-Three-Controller--Streamline-Ultimate.svg" height="400" width="400"><desc>Filter Setting Three Controller Streamline Icon: https://streamlinehq.com</desc><path fill="currentColor" fill-rule="evenodd" d="M224.91666666666666 85.48333333333333H21.016666666666666a20.833333333333336 20.833333333333336 0 0 1 0 -41.66666666666667h203.93333333333337a53.56666666666667 53.56666666666667 0 0 1 98.66666666666667 0h55.35000000000001a20.833333333333336 20.833333333333336 0 0 1 0 41.66666666666667h-55.333333333333336a53.56666666666667 53.56666666666667 0 0 1 -98.7 0Zm174.88333333333335 114.45c0 11.5 -9.333333333333336 20.833333333333336 -20.833333333333336 20.833333333333336H175.08333333333337a53.56666666666667 53.56666666666667 0 0 1 -98.73333333333335 0h-55.333333333333336a20.833333333333336 20.833333333333336 0 1 1 0 -41.66666666666667h55.366666666666674a53.56666666666667 53.56666666666667 0 0 1 98.66666666666667 0h203.91666666666669c11.5 0 20.833333333333336 9.333333333333336 20.833333333333336 20.833333333333336Zm0 135.28333333333336c0 11.5 -9.333333333333336 20.833333333333336 -20.833333333333336 20.833333333333336h-55.333333333333336a53.56666666666667 53.56666666666667 0 0 1 -98.7 0H21a20.833333333333336 20.833333333333336 0 0 1 0 -41.66666666666667h203.93333333333337a53.56666666666667 53.56666666666667 0 0 1 98.66666666666667 0h55.35000000000001c11.5 0 20.833333333333336 9.333333333333336 20.833333333333336 20.833333333333336Z" clip-rule="evenodd" stroke-width="1"></path></svg>