<svg xmlns="http://www.w3.org/2000/svg" viewBox="0 0 24 24" id="Envelope--Streamline-Ultimate.svg"><desc>Envelope Streamline Icon: https://streamlinehq.com</desc><g><path d="M11.11 14.56a1.27 1.27 0 0 0 1.77 0l9.69 -9.69a0.5 0.5 0 0 0 0.12 -0.51 0.51 0.51 0 0 0 -0.4 -0.34L22 4H2l-0.29 0a0.5 0.5 0 0 0 -0.4 0.34 0.48 0.48 0 0 0 0.12 0.51Z" fill="#ffffff" stroke-width="1"></path><path d="M23.89 5.83a0.18 0.18 0 0 0 -0.2 0l-6.2 6.2a0.24 0.24 0 0 0 0 0.36l5 5a0.75 0.75 0 0 1 -1.06 1.06l-5 -5a0.25 0.25 0 0 0 -0.36 0l-2.13 2.13a2.76 2.76 0 0 1 -3.89 0l-2.12 -2.09a0.24 0.24 0 0 0 -0.36 0l-5 5a0.75 0.75 0 0 1 -1.06 -1.06l5 -5a0.24 0.24 0 0 0 0 -0.36l-6.2 -6.2a0.18 0.18 0 0 0 -0.2 0A0.18 0.18 0 0 0 0 6v12a2 2 0 0 0 2 2h20a2 2 0 0 0 2 -2V6a0.18 0.18 0 0 0 -0.11 -0.17Z" fill="#ffffff" stroke-width="1"></path></g></svg>