<svg width="25" height="25" viewBox="0 0 25 25" fill="none"
  xmlns="http://www.w3.org/2000/svg">
  <path fill-rule="evenodd" clip-rule="evenodd" d="M15.374 12.718L19.88 9.663C20.581 9.189 21 8.398 21 7.552V7.552C21 6.142 19.858 5 18.449 5H5.56601C4.15701 5 3.01501 6.142 3.01501 7.551V7.551C3.01501 8.397 3.43401 9.188 4.13501 9.663L8.64101 12.718C10.674 14.096 13.341 14.096 15.374 12.718V12.718Z" stroke="currentColor" stroke-width="1.5" stroke-linecap="round" stroke-linejoin="round"/>
  <path fill-rule="evenodd" clip-rule="evenodd" d="M3.75 7.55103C3.75 7.13681 3.41421 6.80103 3 6.80103C2.58579 6.80103 2.25 7.13681 2.25 7.55103V17C2.25 19.0712 3.92879 20.75 6 20.75H12.7396C12.6058 20.2701 12.5258 19.7678 12.5064 19.25H6C4.75721 19.25 3.75 18.2428 3.75 17V7.55103ZM20.25 12.6214C20.7754 12.7235 21.2781 12.8889 21.75 13.1093V7.55203C21.75 7.13781 21.4142 6.80203 21 6.80203C20.5858 6.80203 20.25 7.13781 20.25 7.55203V12.6214Z" fill="currentColor"/>
  <path fill-rule="evenodd" clip-rule="evenodd" d="M19.0016 23.5017C16.5165 23.5017 14.5016 21.4868 14.5016 19.0017C14.5016 16.5166 16.5165 14.5017 19.0016 14.5017C21.4879 14.5017 23.5016 16.5166 23.5016 19.0017C23.5016 21.4868 21.4879 23.5017 19.0016 23.5017" fill="white"/>
  <path d="M19.0016 23.5017C16.5165 23.5017 14.5016 21.4868 14.5016 19.0017C14.5016 16.5166 16.5165 14.5017 19.0016 14.5017C21.4879 14.5017 23.5016 16.5166 23.5016 19.0017C23.5016 21.4868 21.4879 23.5017 19.0016 23.5017" stroke="currentColor" stroke-width="1.5" stroke-linecap="round" stroke-linejoin="round"/>
  <path d="M20.501 18.5L18.9387 20.0624L18 19.1245" stroke="currentColor" stroke-width="1.5" stroke-linecap="round" stroke-linejoin="round"/>
</svg>
