<svg viewBox="0 0 24 24" fill="none"
  xmlns="http://www.w3.org/2000/svg">
  <path d="M11.997 17.5022C11.7219 17.5022 11.4968 17.7273 11.4998 18.0024C11.4998 18.2775 11.7249 18.5026 12 18.5026C12.2751 18.5026 12.5002 18.2775 12.5002 18.0024C12.5002 17.7273 12.2751 17.5022 11.997 17.5022" stroke="currentColor" stroke-width="1.5" stroke-linecap="round" stroke-linejoin="round"/>
  <path d="M11.997 11.4998C11.7219 11.4998 11.4968 11.7248 11.4998 12C11.4998 12.2751 11.7249 12.5002 12 12.5002C12.2751 12.5002 12.5002 12.2751 12.5002 12C12.5002 11.7248 12.2751 11.4998 11.997 11.4998" stroke="currentColor" stroke-width="1.5" stroke-linecap="round" stroke-linejoin="round"/>
  <path d="M11.997 5.49731C11.7219 5.49731 11.4968 5.72241 11.4998 5.99752C11.4998 6.27264 11.7249 6.49773 12 6.49773C12.2751 6.49773 12.5002 6.27264 12.5002 5.99752C12.5002 5.72241 12.2751 5.49731 11.997 5.49731" stroke="currentColor" stroke-width="1.5" stroke-linecap="round" stroke-linejoin="round"/>
</svg>
