<svg viewBox="0 0 24 24" fill="none"
  xmlns="http://www.w3.org/2000/svg">
  <path d="M6.74745 8.99872C6.74745 8.58451 6.41166 8.24872 5.99745 8.24872C5.58324 8.24872 5.24745 8.58451 5.24745 8.99872H6.74745ZM18.7525 8.99872C18.7525 8.58451 18.4167 8.24872 18.0025 8.24872C17.5882 8.24872 17.2525 8.58451 17.2525 8.99872H18.7525ZM14.7508 9.99914C14.7508 9.58492 14.415 9.24914 14.0008 9.24914C13.5866 9.24914 13.2508 9.58492 13.2508 9.99914H14.7508ZM13.2508 17.0021C13.2508 17.4163 13.5866 17.7521 14.0008 17.7521C14.415 17.7521 14.7508 17.4163 14.7508 17.0021H13.2508ZM10.7491 9.99914C10.7491 9.58492 10.4133 9.24914 9.99912 9.24914C9.5849 9.24914 9.24912 9.58492 9.24912 9.99914H10.7491ZM9.24912 17.0021C9.24912 17.4163 9.5849 17.7521 9.99912 17.7521C10.4133 17.7521 10.7491 17.4163 10.7491 17.0021H9.24912ZM4.49683 5.24747C4.08261 5.24747 3.74683 5.58326 3.74683 5.99747C3.74683 6.41168 4.08261 6.74747 4.49683 6.74747V5.24747ZM19.5031 6.74747C19.9173 6.74747 20.2531 6.41168 20.2531 5.99747C20.2531 5.58326 19.9173 5.24747 19.5031 5.24747V6.74747ZM7.28677 5.7603C7.15579 6.15325 7.36816 6.57799 7.76111 6.70898C8.15407 6.83997 8.57881 6.6276 8.7098 6.23464L7.28677 5.7603ZM8.54251 4.36479L9.25402 4.60196L9.25408 4.60179L8.54251 4.36479ZM10.4413 2.99622L10.4411 3.74622H10.4413V2.99622ZM13.5586 2.99622L13.5586 3.74622L13.5595 3.74622L13.5586 2.99622ZM15.4594 4.36479L16.1712 4.1284L16.171 4.12779L15.4594 4.36479ZM15.2898 6.23385C15.4204 6.62695 15.8449 6.83979 16.238 6.70924C16.6311 6.57869 16.8439 6.15418 16.7134 5.76108L15.2898 6.23385ZM5.24745 8.99872V19.0029H6.74745V8.99872H5.24745ZM5.24745 19.0029C5.24745 20.5221 6.47904 21.7537 7.99828 21.7537V20.2537C7.30747 20.2537 6.74745 19.6937 6.74745 19.0029H5.24745ZM7.99828 21.7537H16.0016V20.2537H7.99828V21.7537ZM16.0016 21.7537C17.5209 21.7537 18.7525 20.5221 18.7525 19.0029H17.2525C17.2525 19.6937 16.6924 20.2537 16.0016 20.2537V21.7537ZM18.7525 19.0029V8.99872H17.2525V19.0029H18.7525ZM13.2508 9.99914V17.0021H14.7508V9.99914H13.2508ZM9.24912 9.99914V17.0021H10.7491V9.99914H9.24912ZM4.49683 6.74747H19.5031V5.24747H4.49683V6.74747ZM8.7098 6.23464L9.25402 4.60196L7.831 4.12762L7.28677 5.7603L8.7098 6.23464ZM9.25408 4.60179C9.42428 4.09077 9.9025 3.74609 10.4411 3.74622L10.4415 2.24622C9.25695 2.24593 8.20525 3.00396 7.83094 4.12779L9.25408 4.60179ZM10.4413 3.74622H13.5586V2.24622H10.4413V3.74622ZM13.5595 3.74622C14.0986 3.74555 14.5775 4.09033 14.7478 4.60179L16.171 4.12779C15.7963 3.00299 14.7432 2.24475 13.5577 2.24622L13.5595 3.74622ZM14.7476 4.60117L15.2898 6.23385L16.7134 5.76108L16.1712 4.1284L14.7476 4.60117Z" fill="currentColor"/>
</svg>
