<svg xmlns="http://www.w3.org/2000/svg" viewBox="0 0 24 24" id="View-1--Streamline-Ultimate.svg"><desc>View 1 Streamline Icon: https://streamlinehq.com</desc><g><path d="M23.43 10.52c-2.64 -2.91 -7 -6 -11.43 -5.92S3.21 7.61 0.57 10.52a2.22 2.22 0 0 0 0 3C2.33 15.42 6.74 19.4 12 19.4s9.66 -4 11.43 -5.93a2.22 2.22 0 0 0 0 -2.95ZM7.4 12a4.6 4.6 0 1 1 4.6 4.6A4.6 4.6 0 0 1 7.4 12Z" fill="currentColor" stroke-width="1"></path><path d="M10 12a2 2 0 1 0 4 0 2 2 0 1 0 -4 0" fill="currentColor" stroke-width="1"></path></g></svg>