<svg xmlns="http://www.w3.org/2000/svg" fill="none" viewBox="0 0 24 24" id="Programming-Language-Http--Streamline-Ultimate.svg">
  <desc>Programming Language Http Streamline Icon: https://streamlinehq.com</desc>
  <path stroke="currentColor" stroke-linecap="round" stroke-linejoin="round" d="M21.5 3h-19c-1.10457 0 -2 0.89543 -2 2v14c0 1.1046 0.89543 2 2 2h19c1.1046 0 2 -0.8954 2 -2V5c0 -1.10457 -0.8954 -2 -2 -2Z" stroke-width="1"></path>
  <path stroke="currentColor" stroke-linecap="round" stroke-linejoin="round" d="M0.5 8h23" stroke-width="1"></path>
  <path stroke="currentColor" stroke-linecap="round" stroke-linejoin="round" d="M9.5 17v-5" stroke-width="1"></path>
  <path stroke="currentColor" stroke-linecap="round" stroke-linejoin="round" d="M8.5 12h2" stroke-width="1"></path>
  <path stroke="currentColor" stroke-linecap="round" stroke-linejoin="round" d="M13.5 17v-5" stroke-width="1"></path>
  <path stroke="currentColor" stroke-linecap="round" stroke-linejoin="round" d="M12.5 12h2" stroke-width="1"></path>
  <path stroke="currentColor" stroke-linecap="round" stroke-linejoin="round" d="M4.5 17v-5" stroke-width="1"></path>
  <path stroke="currentColor" stroke-linecap="round" stroke-linejoin="round" d="M6.5 17v-5" stroke-width="1"></path>
  <path stroke="currentColor" stroke-linecap="round" stroke-linejoin="round" d="M4.5 15h2" stroke-width="1"></path>
  <path stroke="currentColor" stroke-linecap="round" stroke-linejoin="round" d="M16.5 17v-5" stroke-width="1"></path>
  <path stroke="currentColor" stroke-linecap="round" stroke-linejoin="round" d="M16.5 12h0.5c0.3978 0 0.7794 0.158 1.0607 0.4393s0.4393 0.6629 0.4393 1.0607c0 0.3978 -0.158 0.7794 -0.4393 1.0607S17.3978 15 17 15h-0.5" stroke-width="1"></path>
  <path stroke="currentColor" d="M4 5.75c-0.13807 0 -0.25 -0.11193 -0.25 -0.25s0.11193 -0.25 0.25 -0.25" stroke-width="1"></path>
  <path stroke="currentColor" d="M4 5.75c0.13807 0 0.25 -0.11193 0.25 -0.25s-0.11193 -0.25 -0.25 -0.25" stroke-width="1"></path>
  <path stroke="currentColor" d="M7 5.75c-0.13807 0 -0.25 -0.11193 -0.25 -0.25s0.11193 -0.25 0.25 -0.25" stroke-width="1"></path>
  <path stroke="currentColor" d="M7 5.75c0.13807 0 0.25 -0.11193 0.25 -0.25s-0.11193 -0.25 -0.25 -0.25" stroke-width="1"></path>
  <g>
    <path stroke="currentColor" d="M10 5.75c-0.13807 0 -0.25 -0.11193 -0.25 -0.25s0.11193 -0.25 0.25 -0.25" stroke-width="1"></path>
    <path stroke="currentColor" d="M10 5.75c0.1381 0 0.25 -0.11193 0.25 -0.25s-0.1119 -0.25 -0.25 -0.25" stroke-width="1"></path>
  </g>
</svg>
